<?xml version="1.0" encoding="UTF-8" standalone="no"?>
<!-- Created with Inkscape (http://www.inkscape.org/) -->

<svg
   xmlns:dc="http://purl.org/dc/elements/1.1/"
   xmlns:cc="http://creativecommons.org/ns#"
   xmlns:rdf="http://www.w3.org/1999/02/22-rdf-syntax-ns#"
   xmlns:svg="http://www.w3.org/2000/svg"
   xmlns="http://www.w3.org/2000/svg"
   xmlns:sodipodi="http://sodipodi.sourceforge.net/DTD/sodipodi-0.dtd"
   xmlns:inkscape="http://www.inkscape.org/namespaces/inkscape"
   sodipodi:docname="icon.svg"
   inkscape:version="0.92.0 r"
   id="svg8"
   version="1.1"
   viewBox="0 0 124.732 124.732"
   height="124.732mm"
   width="124.732mm">
  <sodipodi:namedview
     inkscape:window-maximized="1"
     inkscape:window-y="27"
     inkscape:window-x="0"
     inkscape:window-height="1019"
     inkscape:window-width="1920"
     showgrid="false"
     inkscape:current-layer="layer2"
     inkscape:document-units="mm"
     inkscape:cy="347.9283"
     inkscape:cx="714.03258"
     inkscape:zoom="0.7"
     inkscape:pageshadow="2"
     inkscape:pageopacity="0.0"
     borderopacity="1.0"
     bordercolor="#666666"
     pagecolor="#ffffff"
     id="base" />
  <defs
     id="defs2">
    <clipPath
       clipPathUnits="userSpaceOnUse"
       id="clipPath10433">
      <circle
         style="opacity:1;fill:#1a77d3;fill-opacity:1;stroke:none;stroke-width:0.26499999;stroke-miterlimit:4;stroke-dasharray:none;stroke-opacity:1"
         id="circle10435"
         cx="105"
         cy="148.5"
         r="62.36607" />
    </clipPath>
  </defs>
  <metadata
     id="metadata5">
    <rdf:RDF>
      <cc:Work
         rdf:about="">
        <dc:format>image/svg+xml</dc:format>
        <dc:type
           rdf:resource="http://purl.org/dc/dcmitype/StillImage" />
        <dc:title></dc:title>
      </cc:Work>
    </rdf:RDF>
  </metadata>
  <g
     id="layer1"
     inkscape:groupmode="layer"
     inkscape:label="Layer 1"
     transform="translate(0,-172.268)" />
  <g
     inkscape:label="Layer 2"
     id="layer2"
     inkscape:groupmode="layer"
     transform="translate(0,-172.268)">
    <g
       id="g10576"
       transform="translate(-42.633999,86.134001)">
      <circle
         style="opacity:1;fill:#c62828;fill-opacity:1;stroke:none;stroke-width:0.26499999;stroke-miterlimit:4;stroke-dasharray:none;stroke-opacity:1"
         id="path3694"
         cx="105"
         cy="148.5"
         r="62.36607" />
      <g
         clip-path="url(#clipPath10433)"
         id="g10178"
         style="opacity:0.153;fill:#000000;fill-opacity:1;stroke-width:0.16132616">
        <path
           id="path9994"
           d="m 79.994438,171.64783 c -7.730602,-0.10835 -7.580621,-0.0885 -9.943951,-1.3125 l 70.710683,70.71068 c 2.36333,1.224 2.21334,1.20415 9.94395,1.3125 z"
           style="fill:#000000;fill-opacity:1"
           inkscape:connector-curvature="0" />
        <path
           id="path9996"
           d="m 70.050487,170.33533 c -0.920926,-0.47694 -1.778185,-1.1203 -2.534815,-1.87693 l 70.710678,70.71068 c 0.75663,0.75663 1.61389,1.39999 2.53482,1.87693 z"
           style="fill:#000000;fill-opacity:1"
           inkscape:connector-curvature="0" />
        <path
           id="path9998"
           d="m 67.515672,168.4584 c -1.728792,-1.72879 -2.932246,-4.04891 -3.169475,-6.32633 l 70.710683,70.71068 c 0.23722,2.27741 1.44068,4.59754 3.16947,6.32633 z"
           style="fill:#000000;fill-opacity:1"
           inkscape:connector-curvature="0" />
        <path
           id="path10000"
           d="m 64.346197,162.13207 c -0.05083,-0.48801 -0.670643,-6.37444 -1.377354,-13.08095 l 70.710677,70.71068 c 0.70671,6.70651 1.32653,12.59294 1.37736,13.08095 z"
           style="fill:#000000;fill-opacity:1"
           inkscape:connector-curvature="0" />
        <path
           id="path10002"
           d="m 62.968843,149.05112 c -0.706706,-6.70651 -1.284924,-12.70228 -1.284924,-13.32393 l 70.710681,70.71068 c 0,0.62165 0.57822,6.61742 1.28492,13.32393 z"
           style="fill:#000000;fill-opacity:1"
           inkscape:connector-curvature="0" />
        <path
           id="path10004"
           d="m 61.683919,135.72719 c 0,-2.25626 0.975348,-4.82875 2.541769,-6.70395 l 70.710682,70.71068 c -1.56642,1.8752 -2.54177,4.44769 -2.54177,6.70395 z"
           style="fill:#000000;fill-opacity:1"
           inkscape:connector-curvature="0" />
        <path
           id="path10006"
           d="m 64.225688,129.02324 c 1.301488,-1.55803 2.870232,-2.61605 5.121221,-3.45394 l 70.710681,70.71068 c -2.25099,0.83789 -3.81974,1.89591 -5.12122,3.45394 z"
           style="fill:#000000;fill-opacity:1"
           inkscape:connector-curvature="0" />
        <path
           id="path10008"
           d="m 69.346909,125.5693 c 0.775946,-0.28883 2.116506,-0.30186 35.238431,-0.34242 l 70.71068,70.71068 c -33.12193,0.0406 -34.46249,0.0536 -35.23843,0.34242 z"
           style="fill:#000000;fill-opacity:1"
           inkscape:connector-curvature="0" />
        <path
           id="path10010"
           d="m 104.58534,125.22688 c 34.35611,-0.0421 34.43446,-0.0414 35.64581,0.2909 l 70.71068,70.71068 c -1.21135,-0.3323 -1.2897,-0.333 -35.64581,-0.2909 z"
           style="fill:#000000;fill-opacity:1"
           inkscape:connector-curvature="0" />
        <path
           id="path10012"
           d="m 140.23115,125.51778 c 1.97958,0.54308 3.30172,1.32535 4.84431,2.86794 l 70.71068,70.71068 c -1.54259,-1.54259 -2.86474,-2.32486 -4.84431,-2.86794 z"
           style="fill:#000000;fill-opacity:1"
           inkscape:connector-curvature="0" />
        <path
           id="path10014"
           d="m 145.07546,128.38572 c 0.007,0.007 0.0131,0.0131 0.0196,0.0196 l 70.71068,70.71068 c -0.007,-0.007 -0.0131,-0.0131 -0.0196,-0.0196 z"
           style="fill:#000000;fill-opacity:1"
           inkscape:connector-curvature="0" />
        <path
           id="path10016"
           d="m 145.09505,128.40534 c 1.10152,1.10477 1.51009,1.655 2.04357,2.75211 l 70.71068,70.71068 c -0.53348,-1.09711 -0.94205,-1.64734 -2.04357,-2.75211 z"
           style="fill:#000000;fill-opacity:1"
           inkscape:connector-curvature="0" />
        <path
           id="path10018"
           d="m 147.13862,131.15745 c 0.72112,1.48302 1.17746,3.22341 1.17746,4.4906 l 70.71068,70.71068 c 0,-1.26719 -0.45634,-3.00758 -1.17746,-4.4906 z"
           style="fill:#000000;fill-opacity:1"
           inkscape:connector-curvature="0" />
        <path
           id="path10020"
           d="m 148.31608,135.64805 c 0,0.43839 -0.82908,6.37699 -1.84241,13.1969 l 70.71068,70.71068 c 1.01333,-6.81991 1.84241,-12.75851 1.84241,-13.1969 z"
           style="fill:#000000;fill-opacity:1"
           inkscape:connector-curvature="0" />
        <path
           id="path10022"
           d="m 146.47367,148.84495 c -1.01332,6.8199 -1.88911,12.87913 -1.9462,13.46495 l 70.71068,70.71068 c 0.0571,-0.58582 0.93288,-6.64505 1.9462,-13.46495 z"
           style="fill:#000000;fill-opacity:1"
           inkscape:connector-curvature="0" />
        <path
           id="path10024"
           d="m 144.52747,162.3099 c -0.39714,4.07518 -3.45156,7.82904 -7.4588,9.16683 l 70.71068,70.71068 c 4.00724,-1.33779 7.06166,-5.09165 7.4588,-9.16683 z"
           style="fill:#000000;fill-opacity:1"
           inkscape:connector-curvature="0" />
        <path
           id="path10026"
           d="m 137.06867,171.47673 c -0.9997,0.33375 -1.08891,0.3348 -25.5702,0.30162 l 70.71068,70.71068 c 24.48129,0.0332 24.5705,0.0321 25.5702,-0.30162 z"
           style="fill:#000000;fill-opacity:1"
           inkscape:connector-curvature="0" />
        <path
           id="path10028"
           d="m 111.49847,171.77835 c -13.511849,-0.0183 -27.68867,-0.077 -31.504032,-0.13052 l 70.710682,70.71068 c 3.81536,0.0535 17.99218,0.11222 31.50403,0.13052 z"
           style="fill:#000000;fill-opacity:1"
           inkscape:connector-curvature="0" />
        <path
           id="path10030"
           d="m 134.68402,168.5786 c 3.17328,-0.45368 5.83419,-2.944 6.371,-5.96255 l 70.71068,70.71068 c -0.53681,3.01855 -3.19772,5.50887 -6.371,5.96255 z"
           style="fill:#000000;fill-opacity:1"
           inkscape:connector-curvature="0" />
        <path
           id="path10032"
           d="m 141.05502,162.61605 c 0.0868,-0.48801 1.00146,-6.62244 2.03259,-13.63206 l 70.71068,70.71068 c -1.03113,7.00962 -1.94579,13.14405 -2.03259,13.63206 z"
           style="fill:#000000;fill-opacity:1"
           inkscape:connector-curvature="0" />
        <path
           id="path10034"
           d="m 143.08761,148.98399 c 2.11779,-14.39662 2.09799,-14.11645 1.14031,-16.13305 l 70.71068,70.71068 c 0.95768,2.0166 0.97748,1.73643 -1.14031,16.13305 z"
           style="fill:#000000;fill-opacity:1"
           inkscape:connector-curvature="0" />
        <path
           id="path10036"
           d="m 144.22792,132.85094 c -0.38606,-0.81294 -0.90484,-1.54146 -1.52357,-2.16019 l 70.71068,70.71068 c 0.61873,0.61873 1.13751,1.34725 1.52357,2.16019 z"
           style="fill:#000000;fill-opacity:1"
           inkscape:connector-curvature="0" />
        <path
           id="path10038"
           d="m 142.70435,130.69075 c -1.07928,-1.07928 -2.46272,-1.82451 -3.97647,-2.101 l 70.71068,70.71068 c 1.51375,0.27649 2.89719,1.02171 3.97647,2.101 z"
           style="fill:#000000;fill-opacity:1"
           inkscape:connector-curvature="0" />
        <path
           id="path10040"
           d="m 138.72788,128.58975 c -0.66755,-0.12193 -10.89636,-0.174 -33.79784,-0.17204 l 70.71068,70.71068 c 22.90148,-0.002 33.13029,0.0501 33.79784,0.17204 z"
           style="fill:#000000;fill-opacity:1"
           inkscape:connector-curvature="0" />
        <path
           id="path10042"
           d="m 104.93004,128.41771 c -35.688772,0.003 -34.002776,-0.039 -35.841726,0.89291 l 70.710676,70.71068 c 1.83895,-0.93191 0.15296,-0.88991 35.84173,-0.89291 z"
           style="fill:#000000;fill-opacity:1"
           inkscape:connector-curvature="0" />
        <path
           id="path10044"
           d="m 69.088314,129.31062 c -1.219964,0.6182 -2.724183,2.18126 -3.337183,3.46772 l 70.710679,70.71068 c 0.613,-1.28646 2.11722,-2.84952 3.33718,-3.46772 z"
           style="fill:#000000;fill-opacity:1"
           inkscape:connector-curvature="0" />
        <path
           id="path10046"
           d="m 65.751131,132.77834 c -0.789931,1.65777 -0.864238,2.52268 -0.505251,5.88078 l 70.71068,70.71068 c -0.35899,-3.3581 -0.28468,-4.22301 0.50525,-5.88078 z"
           style="fill:#000000;fill-opacity:1"
           inkscape:connector-curvature="0" />
        <path
           id="path10048"
           d="m 65.24588,138.65912 c 0.170738,1.59713 0.816582,7.69526 1.435212,13.5514 l 70.710678,70.71068 c -0.61863,-5.85614 -1.26447,-11.95427 -1.43521,-13.5514 z"
           style="fill:#000000;fill-opacity:1"
           inkscape:connector-curvature="0" />
        <path
           id="path10050"
           d="m 66.681092,152.21052 1.124776,10.64752 70.710682,70.71068 -1.12478,-10.64752 z"
           style="fill:#000000;fill-opacity:1"
           inkscape:connector-curvature="0" />
        <path
           id="path10052"
           d="m 67.805868,162.85804 0.557795,1.12929 70.710677,70.71068 -0.55779,-1.12929 z"
           style="fill:#000000;fill-opacity:1"
           inkscape:connector-curvature="0" />
        <path
           id="path10054"
           d="m 68.363663,163.98733 c 0.392915,0.79548 0.89427,1.49714 1.490078,2.09295 l 70.710679,70.71068 c -0.59581,-0.59581 -1.09716,-1.29747 -1.49008,-2.09295 z"
           style="fill:#000000;fill-opacity:1"
           inkscape:connector-curvature="0" />
        <path
           id="path10056"
           d="m 69.853741,166.08028 c 0.858746,0.85875 1.913707,1.49759 3.123007,1.88045 l 70.710682,70.71068 c -1.2093,-0.38287 -2.26427,-1.0217 -3.12301,-1.88045 z"
           style="fill:#000000;fill-opacity:1"
           inkscape:connector-curvature="0" />
        <path
           id="path10058"
           d="m 72.976748,167.96073 c 1.031436,0.32655 1.51657,0.33529 29.603362,0.53386 l 70.71068,70.71068 c -28.08679,-0.19857 -28.57193,-0.20731 -29.60336,-0.53386 z"
           style="fill:#000000;fill-opacity:1"
           inkscape:connector-curvature="0" />
        <path
           id="path10060"
           d="m 102.58011,168.49459 c 15.70511,0.11103 29.09921,0.21169 29.76468,0.22367 l 70.71068,70.71068 c -0.66547,-0.012 -14.05957,-0.11264 -29.76468,-0.22367 z"
           style="fill:#000000;fill-opacity:1"
           inkscape:connector-curvature="0" />
        <path
           id="path10062"
           d="m 132.34479,168.71826 c 0.66547,0.012 1.71812,-0.0509 2.33923,-0.13966 l 70.71068,70.71068 c -0.62111,0.0888 -1.67376,0.15166 -2.33923,0.13966 z"
           style="fill:#000000;fill-opacity:1"
           inkscape:connector-curvature="0" />
        <path
           id="path10064"
           d="m 83.292202,159.56887 c -0.692415,-0.22631 -1.289584,-0.60247 -1.766778,-1.07966 l 70.710676,70.71068 c 0.4772,0.47719 1.07437,0.85335 1.76678,1.07966 z"
           style="fill:#000000;fill-opacity:1"
           inkscape:connector-curvature="0" />
        <path
           id="path10066"
           d="m 81.525424,158.48921 c -1.1335,-1.1335 -1.590065,-2.83708 -1.038251,-4.45656 l 70.710677,70.71068 c -0.55181,1.61948 -0.0952,3.32305 1.03825,4.45656 z"
           style="fill:#000000;fill-opacity:1"
           inkscape:connector-curvature="0" />
        <path
           id="path10068"
           d="m 80.487173,154.03265 c 0.333465,-0.97867 1.143663,-1.89596 2.108018,-2.38667 l 70.710679,70.71068 c -0.96436,0.49071 -1.77455,1.408 -2.10802,2.38667 z"
           style="fill:#000000;fill-opacity:1"
           inkscape:connector-curvature="0" />
        <path
           id="path10070"
           d="m 82.595191,151.64598 c 1.019359,-0.5187 2.717995,-0.55671 3.685615,-0.0825 l 70.710674,70.71068 c -0.96762,-0.47421 -2.66625,-0.4362 -3.68561,0.0825 z"
           style="fill:#000000;fill-opacity:1"
           inkscape:connector-curvature="0" />
        <path
           id="path10072"
           d="m 86.280806,151.56348 c 0.449563,0.22034 0.847897,0.5094 1.18669,0.84819 l 70.710674,70.71068 c -0.33879,-0.33879 -0.73712,-0.62786 -1.18669,-0.84819 z"
           style="fill:#000000;fill-opacity:1"
           inkscape:connector-curvature="0" />
        <path
           id="path10074"
           d="m 87.467496,152.41167 c 1.133042,1.13305 1.600135,2.82228 1.09038,4.35702 l 70.710674,70.71068 c 0.50976,-1.53474 0.0427,-3.22398 -1.09038,-4.35702 z"
           style="fill:#000000;fill-opacity:1"
           inkscape:connector-curvature="0" />
        <path
           id="path10076"
           d="m 88.557876,156.76869 c -0.330095,0.99381 -1.207192,2.03976 -2.087394,2.48922 l 70.710678,70.71068 c 0.8802,-0.44946 1.7573,-1.49541 2.08739,-2.48922 z"
           style="fill:#000000;fill-opacity:1"
           inkscape:connector-curvature="0" />
        <path
           id="path10078"
           d="m 86.470482,159.25791 c -0.727015,0.37124 -2.471578,0.54191 -3.17828,0.31093 l 70.710678,70.71068 c 0.7067,0.23098 2.45127,0.0603 3.17828,-0.31093 z"
           style="fill:#000000;fill-opacity:1"
           inkscape:connector-curvature="0" />
        <path
           id="path10080"
           d="m 95.475761,159.45545 c -0.566382,-0.2011 -1.052942,-0.51999 -1.451226,-0.91828 l 70.710675,70.71068 c 0.39829,0.39828 0.88485,0.71718 1.45123,0.91828 z"
           style="fill:#000000;fill-opacity:1"
           inkscape:connector-curvature="0" />
        <path
           id="path10082"
           d="m 94.024535,158.53717 c -1.568253,-1.56825 -1.767885,-4.36734 -0.08285,-6.05238 l 70.710675,70.71068 c -1.68503,1.68503 -1.4854,4.48413 0.0829,6.05238 z"
           style="fill:#000000;fill-opacity:1"
           inkscape:connector-curvature="0" />
        <path
           id="path10084"
           d="m 93.941681,152.48479 c 1.826863,-1.82685 4.516489,-1.5607 6.058619,-0.0186 l 70.71068,70.71068 c -1.54213,-1.54213 -4.23176,-1.80828 -6.05862,0.0186 z"
           style="fill:#000000;fill-opacity:1"
           inkscape:connector-curvature="0" />
        <path
           id="path10086"
           d="m 100.0003,152.46622 c 0.73195,0.73194 1.20539,1.75134 1.20539,2.97082 l 70.71068,70.71068 c 0,-1.21949 -0.47345,-2.23888 -1.20539,-2.97082 z"
           style="fill:#000000;fill-opacity:1"
           inkscape:connector-curvature="0" />
        <path
           id="path10088"
           d="m 101.20569,155.43704 c 0,2.96169 -2.926269,5.01389 -5.729929,4.01841 l 70.710679,70.71068 c 2.80366,0.99548 5.72993,-1.05672 5.72993,-4.01841 z"
           style="fill:#000000;fill-opacity:1"
           inkscape:connector-curvature="0" />
        <path
           id="path10090"
           d="m 109.27515,159.37685 c -0.52217,-0.23609 -0.9632,-0.54615 -1.32442,-0.90737 l 70.71068,70.71068 c 0.36122,0.36122 0.80225,0.67127 1.32442,0.90737 z"
           style="fill:#000000;fill-opacity:1"
           inkscape:connector-curvature="0" />
        <path
           id="path10092"
           d="m 107.95073,158.46948 c -2.15848,-2.15848 -1.46705,-6.1438 1.79068,-7.09084 l 70.71068,70.71068 c -3.25773,0.94704 -3.94916,4.93236 -1.79068,7.09084 z"
           style="fill:#000000;fill-opacity:1"
           inkscape:connector-curvature="0" />
        <path
           id="path10094"
           d="m 109.74141,151.37864 c 1.59181,-0.46275 3.1645,0.0554 4.20769,1.09861 l 70.71068,70.71068 c -1.04319,-1.04319 -2.61588,-1.56136 -4.20769,-1.09861 z"
           style="fill:#000000;fill-opacity:1"
           inkscape:connector-curvature="0" />
        <path
           id="path10096"
           d="m 113.9491,152.47725 c 0.92683,0.92684 1.4357,2.26809 1.16866,3.70403 l 70.71068,70.71068 c 0.26704,-1.43594 -0.24183,-2.7772 -1.16866,-3.70403 z"
           style="fill:#000000;fill-opacity:1"
           inkscape:connector-curvature="0" />
        <path
           id="path10098"
           d="m 115.11776,156.18128 c -0.50563,2.71887 -3.39804,4.30085 -5.84261,3.19557 l 70.71068,70.71068 c 2.44457,1.10528 5.33698,-0.4767 5.84261,-3.19557 z"
           style="fill:#000000;fill-opacity:1"
           inkscape:connector-curvature="0" />
        <path
           id="path10100"
           d="m 122.58455,159.33255 c -0.48146,-0.22468 -0.89607,-0.51979 -1.24117,-0.8649 l 70.71067,70.71068 c 0.34511,0.34511 0.75971,0.64022 1.24118,0.8649 z"
           style="fill:#000000;fill-opacity:1"
           inkscape:connector-curvature="0" />
        <path
           id="path10102"
           d="m 121.34338,158.46765 c -1.71124,-1.71124 -1.71379,-4.65184 0.31339,-6.33152 l 70.71068,70.71068 c -2.02719,1.67968 -2.02463,4.62028 -0.3134,6.33152 z"
           style="fill:#000000;fill-opacity:1"
           inkscape:connector-curvature="0" />
        <path
           id="path10104"
           d="m 121.65677,152.13613 c 1.80309,-1.494 4.28062,-1.0525 5.7387,0.40558 l 70.71067,70.71068 c -1.45807,-1.45808 -3.9356,-1.89958 -5.73869,-0.40558 z"
           style="fill:#000000;fill-opacity:1"
           inkscape:connector-curvature="0" />
        <path
           id="path10106"
           d="m 127.39547,152.54171 c 0.83836,0.83837 1.3397,2.01282 1.182,3.34868 l 70.71068,70.71068 c 0.15769,-1.33586 -0.34364,-2.51031 -1.18201,-3.34868 z"
           style="fill:#000000;fill-opacity:1"
           inkscape:connector-curvature="0" />
        <path
           id="path10108"
           d="m 128.57747,155.89039 c -0.34092,2.88789 -3.40695,4.64893 -5.99292,3.44216 l 70.71068,70.71068 c 2.58597,1.20677 5.652,-0.55427 5.99292,-3.44216 z"
           style="fill:#000000;fill-opacity:1"
           inkscape:connector-curvature="0" />
        <path
           id="path10110"
           d="m 75.997199,144.36556 c -0.896792,-0.13405 -1.689647,-0.55302 -2.296176,-1.15955 l 70.710677,70.71068 c 0.60653,0.60652 1.39939,1.0255 2.29618,1.15955 z"
           style="fill:#000000;fill-opacity:1"
           inkscape:connector-curvature="0" />
        <path
           id="path10112"
           d="m 73.701023,143.20601 c -0.770673,-0.77068 -1.24052,-1.84415 -1.24052,-3.02065 l 70.710677,70.71068 c 0,1.1765 0.46985,2.24997 1.24052,3.02065 z"
           style="fill:#000000;fill-opacity:1"
           inkscape:connector-curvature="0" />
        <path
           id="path10114"
           d="m 72.460503,140.18536 c 0,-2.38314 1.840016,-4.22039 4.226747,-4.22039 l 70.71068,70.71068 c -2.38673,0 -4.22675,1.83725 -4.22675,4.22039 z"
           style="fill:#000000;fill-opacity:1"
           inkscape:connector-curvature="0" />
        <path
           id="path10116"
           d="m 76.68725,135.96497 c 1.195366,0 2.251001,0.45809 3.008319,1.21541 l 70.710681,70.71068 c -0.75732,-0.75732 -1.81296,-1.21541 -3.00832,-1.21541 z"
           style="fill:#000000;fill-opacity:1"
           inkscape:connector-curvature="0" />
        <path
           id="path10118"
           d="m 79.695569,137.18038 c 0.759058,0.75906 1.218427,1.81872 1.218427,3.01901 l 70.710674,70.71068 c 0,-1.20029 -0.45937,-2.25995 -1.21842,-3.01901 z"
           style="fill:#000000;fill-opacity:1"
           inkscape:connector-curvature="0" />
        <path
           id="path10120"
           d="m 80.913996,140.19939 c 0,2.65778 -2.250486,4.5647 -4.916797,4.16617 l 70.710681,70.71068 c 2.66631,0.39853 4.91679,-1.50839 4.91679,-4.16617 z"
           style="fill:#000000;fill-opacity:1"
           inkscape:connector-curvature="0" />
        <path
           id="path10122"
           d="m 89.739015,144.36956 c -0.866401,-0.12915 -1.603096,-0.49602 -2.198226,-1.09115 l 70.710681,70.71068 c 0.59513,0.59513 1.33182,0.962 2.19822,1.09115 z"
           style="fill:#000000;fill-opacity:1"
           inkscape:connector-curvature="0" />
        <path
           id="path10124"
           d="m 87.540789,143.27841 c -0.386371,-0.38637 -0.713073,-0.86895 -0.976862,-1.44514 l 70.710683,70.71068 c 0.26378,0.57619 0.59049,1.05877 0.97686,1.44514 z"
           style="fill:#000000;fill-opacity:1"
           inkscape:connector-curvature="0" />
        <path
           id="path10126"
           d="m 86.563927,141.83327 c -0.94245,-2.05859 0.06742,-4.61193 2.196556,-5.55375 l 70.710677,70.71068 c -2.12913,0.94182 -3.139,3.49516 -2.19655,5.55375 z"
           style="fill:#000000;fill-opacity:1"
           inkscape:connector-curvature="0" />
        <path
           id="path10128"
           d="m 88.760483,136.27952 c 0.908203,-0.40174 2.437994,-0.42559 3.333414,-0.052 l 70.710683,70.71068 c -0.89542,-0.37359 -2.42522,-0.34974 -3.33342,0.052 z"
           style="fill:#000000;fill-opacity:1"
           inkscape:connector-curvature="0" />
        <path
           id="path10130"
           d="m 92.093897,136.22752 c 0.445886,0.18605 0.870219,0.48761 1.243793,0.86118 l 70.71068,70.71068 c -0.37358,-0.37357 -0.79791,-0.67513 -1.24379,-0.86118 z"
           style="fill:#000000;fill-opacity:1"
           inkscape:connector-curvature="0" />
        <path
           id="path10132"
           d="m 93.33769,137.0887 c 0.836221,0.83622 1.418111,2.03328 1.418111,3.10331 l 70.710679,70.71068 c 0,-1.07003 -0.58189,-2.26709 -1.41811,-3.10331 z"
           style="fill:#000000;fill-opacity:1"
           inkscape:connector-curvature="0" />
        <path
           id="path10134"
           d="m 94.755801,140.19201 c 0,1.40402 -1.07404,3.15154 -2.359904,3.83971 l 70.710683,70.71068 c 1.28586,-0.68817 2.3599,-2.43569 2.3599,-3.83971 z"
           style="fill:#000000;fill-opacity:1"
           inkscape:connector-curvature="0" />
        <path
           id="path10136"
           d="m 92.395897,144.03172 c -0.52632,0.28168 -1.87933,0.4537 -2.656882,0.3378 l 70.710675,70.71068 c 0.77756,0.1159 2.13057,-0.0561 2.65689,-0.3378 z"
           style="fill:#000000;fill-opacity:1"
           inkscape:connector-curvature="0" />
        <path
           id="path10138"
           d="m 102.23225,144.36456 c -0.88421,-0.15452 -1.69276,-0.60663 -2.319017,-1.23288 l 70.710677,70.71068 c 0.62625,0.62625 1.43481,1.07836 2.31902,1.23288 z"
           style="fill:#000000;fill-opacity:1"
           inkscape:connector-curvature="0" />
        <path
           id="path10140"
           d="m 99.913233,143.13168 c -0.786619,-0.78662 -1.285612,-1.84798 -1.285612,-2.93944 l 70.710679,70.71068 c 0,1.09145 0.49899,2.15282 1.28561,2.93944 z"
           style="fill:#000000;fill-opacity:1"
           inkscape:connector-curvature="0" />
        <path
           id="path10142"
           d="m 98.627621,140.19224 c 0,-1.49069 1.11095,-3.19913 2.525629,-3.88397 l 70.71068,70.71068 c -1.41468,0.68484 -2.52563,2.39328 -2.52563,3.88397 z"
           style="fill:#000000;fill-opacity:1"
           inkscape:connector-curvature="0" />
        <path
           id="path10144"
           d="m 101.15325,136.30827 c 1.49296,-0.72272 3.55124,-0.35327 4.75868,0.85416 l 70.71068,70.71068 c -1.20744,-1.20743 -3.26572,-1.57688 -4.75868,-0.85416 z"
           style="fill:#000000;fill-opacity:1"
           inkscape:connector-curvature="0" />
        <path
           id="path10146"
           d="m 105.91193,137.16243 c 1e-5,1e-5 2e-5,2e-5 3e-5,3e-5 l 70.71068,70.71068 c -1e-5,-1e-5 -2e-5,-2e-5 -3e-5,-3e-5 z"
           style="fill:#000000;fill-opacity:1"
           inkscape:connector-curvature="0" />
        <path
           id="path10148"
           d="m 105.91196,137.16246 c 0.89227,0.89227 1.18529,1.64129 1.18529,3.02978 l 70.71068,70.71068 c 0,-1.3885 -0.29303,-2.13752 -1.18529,-3.02978 z"
           style="fill:#000000;fill-opacity:1"
           inkscape:connector-curvature="0" />
        <path
           id="path10150"
           d="m 107.09725,140.19224 c 0,1.37899 -0.29326,2.13775 -1.16197,3.00646 l 70.71068,70.71068 c 0.86871,-0.86871 1.16197,-1.62747 1.16197,-3.00646 z"
           style="fill:#000000;fill-opacity:1"
           inkscape:connector-curvature="0" />
        <path
           id="path10152"
           d="m 105.93528,143.1987 c -0.98056,0.98056 -2.33075,1.40565 -3.70303,1.16585 l 70.71068,70.71068 c 1.37228,0.2398 2.72247,-0.18529 3.70303,-1.16585 z"
           style="fill:#000000;fill-opacity:1"
           inkscape:connector-curvature="0" />
        <path
           id="path10154"
           d="m 116.19652,144.37056 c -0.93916,-0.14061 -1.60356,-0.4842 -2.3182,-1.19884 L 184.589,213.8824 c 0.71464,0.71464 1.37904,1.05823 2.3182,1.19884 z"
           style="fill:#000000;fill-opacity:1"
           inkscape:connector-curvature="0" />
        <path
           id="path10156"
           d="m 113.87832,143.17172 c -0.78719,-0.78719 -1.08402,-1.43668 -1.17388,-2.56855 l 70.71068,70.71068 c 0.0899,1.13187 0.38669,1.78136 1.17388,2.56855 z"
           style="fill:#000000;fill-opacity:1"
           inkscape:connector-curvature="0" />
        <path
           id="path10158"
           d="m 112.70444,140.60317 c -0.13991,-1.76232 0.56344,-3.22167 1.94214,-4.02964 l 70.71068,70.71068 c -1.3787,0.80797 -2.08205,2.26732 -1.94214,4.02964 z"
           style="fill:#000000;fill-opacity:1"
           inkscape:connector-curvature="0" />
        <path
           id="path10160"
           d="m 114.64658,136.57353 c 1.80272,-1.05647 3.96553,-0.66818 5.28534,0.65164 l 70.71068,70.71068 c -1.31981,-1.31982 -3.48262,-1.70811 -5.28534,-0.65164 z"
           style="fill:#000000;fill-opacity:1"
           inkscape:connector-curvature="0" />
        <path
           id="path10162"
           d="m 119.93192,137.22517 c 0.5463,0.5463 0.94817,1.2522 1.12029,2.0813 l 70.71068,70.71068 c -0.17212,-0.8291 -0.57399,-1.535 -1.12029,-2.0813 z"
           style="fill:#000000;fill-opacity:1"
           inkscape:connector-curvature="0" />
        <path
           id="path10164"
           d="m 121.05221,139.30647 c 0.6114,2.94512 -1.85164,5.51386 -4.85569,5.06409 l 70.71068,70.71068 c 3.00405,0.44977 5.46709,-2.11897 4.85569,-5.06409 z"
           style="fill:#000000;fill-opacity:1"
           inkscape:connector-curvature="0" />
        <path
           id="path10166"
           d="m 129.58659,144.37056 c -0.93441,-0.1399 -1.696,-0.55189 -2.26816,-1.12406 l 70.71068,70.71068 c 0.57216,0.57217 1.33375,0.98416 2.26816,1.12406 z"
           style="fill:#000000;fill-opacity:1"
           inkscape:connector-curvature="0" />
        <path
           id="path10168"
           d="m 127.31843,143.2465 c -1.87961,-1.8796 -1.71492,-5.48775 1.08318,-6.85673 l 70.71068,70.71068 c -2.7981,1.36898 -2.96279,4.97713 -1.08318,6.85673 z"
           style="fill:#000000;fill-opacity:1"
           inkscape:connector-curvature="0" />
        <path
           id="path10170"
           d="m 128.40161,136.38977 c 1.71195,-0.83757 3.69261,-0.42357 4.92736,0.81118 l 70.71068,70.71068 c -1.23476,-1.23475 -3.21541,-1.64875 -4.92736,-0.81118 z"
           style="fill:#000000;fill-opacity:1"
           inkscape:connector-curvature="0" />
        <path
           id="path10172"
           d="m 133.32897,137.20095 c 0.46356,0.46357 0.822,1.04282 1.0216,1.71496 l 70.71068,70.71068 c -0.19961,-0.67214 -0.55804,-1.25139 -1.0216,-1.71496 z"
           style="fill:#000000;fill-opacity:1"
           inkscape:connector-curvature="0" />
        <path
           id="path10174"
           d="m 134.35057,138.91591 c 0.31646,1.06566 0.31674,1.4867 0.002,2.54759 l 70.71068,70.71068 c 0.31474,-1.06089 0.31446,-1.48193 -0.002,-2.54759 z"
           style="fill:#000000;fill-opacity:1"
           inkscape:connector-curvature="0" />
        <path
           id="path10176"
           d="m 134.35257,141.4635 c -0.58133,1.95753 -2.65579,3.22296 -4.76568,2.90706 l 70.71068,70.71068 c 2.10989,0.3159 4.18435,-0.94953 4.76568,-2.90706 z"
           style="fill:#000000;fill-opacity:1"
           inkscape:connector-curvature="0" />
      </g>
      <path
         inkscape:connector-curvature="0"
         id="path4675"
         d="m 79.994438,171.64783 c -7.730602,-0.10835 -7.580621,-0.0885 -9.943951,-1.3125 -3.02511,-1.56667 -5.363234,-4.9291 -5.70429,-8.20326 -0.05083,-0.48801 -0.670643,-6.37444 -1.377354,-13.08095 -0.706706,-6.70651 -1.284924,-12.70228 -1.284924,-13.32393 0,-2.25626 0.975348,-4.82875 2.541769,-6.70395 1.301488,-1.55803 2.870232,-2.61605 5.121221,-3.45394 0.775946,-0.28883 2.116506,-0.30186 35.238431,-0.34242 34.35611,-0.0421 34.43446,-0.0414 35.64581,0.2909 1.98795,0.54538 3.31289,1.33197 4.8639,2.88756 1.10152,1.10477 1.51009,1.655 2.04357,2.75211 0.72112,1.48302 1.17746,3.22341 1.17746,4.4906 0,0.43839 -0.82908,6.37699 -1.84241,13.1969 -1.01332,6.8199 -1.88911,12.87913 -1.9462,13.46495 -0.39714,4.07518 -3.45156,7.82904 -7.4588,9.16683 -0.9997,0.33375 -1.08891,0.3348 -25.5702,0.30162 -13.511849,-0.0183 -27.68867,-0.077 -31.504032,-0.13052 z m 54.689582,-3.06923 c 3.17328,-0.45368 5.83419,-2.944 6.371,-5.96255 0.0868,-0.48801 1.00146,-6.62244 2.03259,-13.63206 2.11779,-14.39662 2.09799,-14.11645 1.14031,-16.13305 -1.05949,-2.23098 -3.11848,-3.82619 -5.50004,-4.26119 -0.66755,-0.12193 -10.89636,-0.174 -33.79784,-0.17204 -35.688772,0.003 -34.002776,-0.039 -35.841726,0.89291 -1.219964,0.6182 -2.724183,2.18126 -3.337183,3.46772 -0.789931,1.65777 -0.864238,2.52268 -0.505251,5.88078 0.170738,1.59713 0.816582,7.69526 1.435212,13.5514 l 1.124776,10.64752 0.557795,1.12929 c 0.959229,1.94201 2.564758,3.3249 4.613085,3.9734 1.031436,0.32655 1.51657,0.33529 29.603362,0.53386 15.70511,0.11103 29.09921,0.21169 29.76468,0.22367 0.66547,0.012 1.71812,-0.0509 2.33923,-0.13966 z m -51.391818,-9.00973 c -2.33714,-0.76388 -3.589152,-3.23495 -2.805029,-5.53622 0.333465,-0.97867 1.143663,-1.89596 2.108018,-2.38667 1.019359,-0.5187 2.717995,-0.55671 3.685615,-0.0825 1.953062,0.95722 2.939248,3.21157 2.27707,5.20521 -0.330095,0.99381 -1.207192,2.03976 -2.087394,2.48922 -0.727015,0.37124 -2.471578,0.54191 -3.17828,0.31093 z m 12.183559,-0.11342 c -2.79652,-0.99292 -3.647054,-4.85768 -1.53408,-6.97066 2.69395,-2.69393 7.264009,-0.83656 7.264009,2.95225 0,2.96169 -2.926269,5.01389 -5.729929,4.01841 z m 13.799389,-0.0786 c -3.64245,-1.64689 -3.33664,-6.89268 0.46626,-7.99821 3.00607,-0.87389 5.94395,1.75049 5.37635,4.80264 -0.50563,2.71887 -3.39804,4.30085 -5.84261,3.19557 z m 13.3094,-0.0443 c -2.86883,-1.33878 -3.36379,-5.178 -0.92778,-7.19642 2.83984,-2.35302 7.35266,0.0951 6.9207,3.75426 -0.34092,2.88789 -3.40695,4.64893 -5.99292,3.44216 z M 75.997199,144.36556 c -2.036282,-0.30437 -3.536696,-2.07778 -3.536696,-4.1802 0,-2.38314 1.840016,-4.22039 4.226747,-4.22039 2.39348,0 4.226746,1.83659 4.226746,4.23442 0,2.65778 -2.250486,4.5647 -4.916797,4.16617 z m 13.741816,0.004 c -1.428888,-0.21299 -2.504984,-1.07259 -3.175088,-2.53629 -0.94245,-2.05859 0.06742,-4.61193 2.196556,-5.55375 0.908203,-0.40174 2.437994,-0.42559 3.333414,-0.052 1.443974,0.60251 2.661904,2.41643 2.661904,3.96449 0,1.40402 -1.07404,3.15154 -2.359904,3.83971 -0.52632,0.28168 -1.87933,0.4537 -2.656882,0.3378 z m 12.493235,-0.005 c -1.99483,-0.3486 -3.604629,-2.21192 -3.604629,-4.17232 0,-1.49069 1.11095,-3.19913 2.525629,-3.88397 1.49296,-0.72272 3.55124,-0.35327 4.75868,0.85416 0.89229,0.89228 1.18532,1.6413 1.18532,3.02981 0,1.37899 -0.29326,2.13775 -1.16197,3.00646 -0.98056,0.98056 -2.33075,1.40565 -3.70303,1.16585 z m 13.96427,0.006 c -0.93916,-0.14061 -1.60356,-0.4842 -2.3182,-1.19884 -0.78719,-0.78719 -1.08402,-1.43668 -1.17388,-2.56855 -0.13991,-1.76232 0.56344,-3.22167 1.94214,-4.02964 2.54891,-1.49376 5.81769,-0.0992 6.40563,2.73294 0.6114,2.94512 -1.85164,5.51386 -4.85569,5.06409 z m 13.39007,0 c -4.00401,-0.59949 -4.83484,-6.19508 -1.18498,-7.98079 2.35467,-1.15202 5.21769,0.0637 5.94896,2.52614 0.31646,1.06566 0.31674,1.4867 0.002,2.54759 -0.58133,1.95753 -2.65579,3.22296 -4.76568,2.90706 z"
         style="fill:#ffffff;fill-opacity:1;stroke-width:0.16132616" />
    </g>
  </g>
</svg>
